<svg width="272" height="100" viewBox="0 0 272 100" fill="none" xmlns="http://www.w3.org/2000/svg">
<path d="M25.2144 85.3159L25.4021 85.1283V82.8055L25.2144 82.6177H16.8382L16.6505 82.8055V98.8539L16.8382 99.0417H19.1845L19.3722 98.8539V92.0028H24.2055L24.3932 91.8151V89.4923L24.2055 89.3046H19.3722V85.3159H25.2144Z" fill="url(#paint0_linear_1_50)"/>
<path d="M50.048 82.7585L46.6929 98.8071L46.8806 99.0417H49.2268L49.3911 98.9009L50.2357 94.7245H53.239L54.0602 98.9009L54.2479 99.0417H56.5707L56.7584 98.8071L53.4267 82.7585L53.239 82.6178H50.2357L50.048 82.7585ZM50.7754 92.0263L51.7374 87.2634L52.6759 92.0263H50.7754ZM51.667 78.2068L50.6581 80.7173L50.7519 80.8815H52.7462L52.9809 80.7173L53.9898 78.2068L53.8959 78.0425H51.9016L51.667 78.2068Z" fill="url(#paint1_linear_1_50)"/>
<path d="M83.7822 84.9875C84.838 84.9875 85.7531 85.7149 86.0347 86.7238L86.2928 86.8411L88.3575 85.6445L88.4513 85.4099C87.6771 83.5328 85.8235 82.2893 83.7822 82.2893C81.0136 82.2893 78.7377 84.5417 78.7377 87.3103V94.3257C78.7377 97.0943 81.0136 99.3701 83.7822 99.3701C85.8235 99.3701 87.6771 98.1032 88.4513 96.2262L88.3575 95.9915L86.2928 94.7949L86.0347 94.9122C85.7531 95.9211 84.838 96.6485 83.7822 96.6485C82.5152 96.6485 81.4594 95.5927 81.4594 94.3257V87.3103C81.4594 86.0433 82.5152 84.9875 83.7822 84.9875Z" fill="url(#paint2_linear_1_50)"/>
<path d="M116.9 85.3159L117.087 85.1283V82.8055L116.9 82.6177H110.541L110.354 82.8055V85.1283L110.541 85.3159H112.371V96.32H110.541L110.354 96.5077V98.8539L110.541 99.0417H116.9L117.087 98.8539V96.5077L116.9 96.32H115.093V85.3159H116.9Z" fill="url(#paint3_linear_1_50)"/>
<path d="M141.929 82.8055L141.741 82.6177H139.395L139.207 82.8055V98.8539L139.395 99.0417H147.748L147.935 98.8539V96.5077L147.748 96.32H141.929V82.8055Z" fill="url(#paint4_linear_1_50)"/>
<path d="M33.3077 63.0284C51.6696 63.0284 66.6154 49.6199 66.6154 33.1369C66.6154 16.6538 51.6696 3.24536 33.3077 3.24536C14.9457 3.24536 0 16.6538 0 33.1369C0 49.6199 14.9457 63.0284 33.3077 63.0284ZM7.60098 33.2223C7.60098 19.4722 19.3868 10.2485 33.3077 10.2485C46.9724 10.2485 58.929 19.4722 58.929 33.0515C58.929 46.2037 46.7161 55.769 33.3077 55.769C19.7284 55.769 7.60098 46.4599 7.60098 33.2223Z" fill="url(#paint5_linear_1_50)"/>
<path d="M80.2801 63.1992V44.4102H105.901L116.064 63.1992H124.605L113.417 43.2146C121.957 40.14 126.655 32.966 126.655 23.5716C126.655 11.4442 117.943 3.41617 106.243 3.41617H73.0207V63.1992H80.2801ZM80.2801 9.99231H102.741C111.538 9.99231 119.139 13.2377 119.139 23.657C119.139 37.6633 105.987 37.6633 102.998 37.6633H80.2801V9.99231Z" fill="url(#paint6_linear_1_50)"/>
<path d="M160.731 63.9678L157.486 71.6542H166.709C169.442 71.6542 170.979 71.9104 170.979 73.5331C170.979 76.0952 167.392 77.9741 164.83 77.9741H155.436L153.215 83.2692H165.087C171.065 83.2692 176.616 78.4012 177.043 73.1061C177.385 68.4943 173.542 66.6154 170.296 66.6154H165.257L166.282 64.3094C179.007 64.1386 190.025 56.9647 195.32 46.8869L188.317 44.581C183.876 51.1572 177.129 56.9647 166.197 56.9647C151.08 56.9647 139.892 45.7767 139.892 32.966C139.892 19.643 151.934 9.73608 165.599 9.73608C176.104 9.73608 183.534 14.2625 188.573 22.2905L195.32 19.9846C189.939 9.65067 178.666 2.47672 165.599 2.47672C147.322 2.47672 132.462 16.3122 132.462 33.3931C132.462 48.8512 144.76 61.7473 160.731 63.9678Z" fill="url(#paint7_linear_1_50)"/>
<path d="M200.871 63.1992H209.411L236.143 15.2874L262.96 63.1992H271.5L236.143 0L200.871 63.1992ZM236.143 63.1992C238.79 63.1992 241.011 60.9787 241.011 58.3311C241.011 55.5982 238.79 53.4631 236.143 53.4631C233.495 53.4631 231.275 55.5982 231.275 58.3311C231.275 60.9787 233.495 63.1992 236.143 63.1992Z" fill="url(#paint8_linear_1_50)"/>
<defs>
<linearGradient id="paint0_linear_1_50" x1="-19.4956" y1="95.329" x2="49.037" y2="95.329" gradientUnits="userSpaceOnUse">
<stop offset="1" stop-color="white"/>
</linearGradient>
<linearGradient id="paint1_linear_1_50" x1="5.11996" y1="94.2948" x2="83.9417" y2="94.2948" gradientUnits="userSpaceOnUse">
<stop offset="1" stop-color="white"/>
</linearGradient>
<linearGradient id="paint2_linear_1_50" x1="38.6184" y1="95.509" x2="114.684" y2="95.509" gradientUnits="userSpaceOnUse">
<stop offset="1" stop-color="white"/>
</linearGradient>
<linearGradient id="paint3_linear_1_50" x1="82.5415" y1="95.329" x2="135.273" y2="95.329" gradientUnits="userSpaceOnUse">
<stop offset="1" stop-color="white"/>
</linearGradient>
<linearGradient id="paint4_linear_1_50" x1="103.158" y1="95.329" x2="171.507" y2="95.329" gradientUnits="userSpaceOnUse">
<stop offset="1" stop-color="white"/>
</linearGradient>
<linearGradient id="paint5_linear_1_50" x1="-275.137" y1="49.5143" x2="246.519" y2="49.5143" gradientUnits="userSpaceOnUse">
<stop offset="1" stop-color="white"/>
</linearGradient>
<linearGradient id="paint6_linear_1_50" x1="-148.5" y1="49.6851" x2="271.5" y2="49.6851" gradientUnits="userSpaceOnUse">
<stop offset="1" stop-color="white"/>
</linearGradient>
<linearGradient id="paint7_linear_1_50" x1="-127.154" y1="65.0058" x2="365.075" y2="65.0058" gradientUnits="userSpaceOnUse">
<stop offset="1" stop-color="white"/>
</linearGradient>
<linearGradient id="paint8_linear_1_50" x1="-90.8445" y1="48.9128" x2="462.245" y2="48.9128" gradientUnits="userSpaceOnUse">
<stop offset="1" stop-color="white"/>
</linearGradient>
</defs>
</svg>
